<svg height="464pt" viewBox="0 0 464 464" width="464pt" xmlns="http://www.w3.org/2000/svg"><path d="m216 0h224c13.253906 0 24 10.746094 24 24v416c0 13.253906-10.746094 24-24 24h-224c-13.253906 0-24-10.746094-24-24v-416c0-13.253906 10.746094-24 24-24zm0 0" fill="#a3603e"/><path d="m192 432.121094v7.878906c0 13.253906 10.746094 24 24 24h224c13.253906 0 24-10.746094 24-24v-403.199219c-55.6875 152.703125-149.285156 288.738281-272 395.320313zm0 0" fill="#94502d"/><path d="m392 112c0 35.347656-28.652344 64-64 64s-64-28.652344-64-64 28.652344-64 64-64 64 28.652344 64 64zm0 0" fill="#fdb62f"/><path d="m432 320c0 57.4375-46.5625 104-104 104s-104-46.5625-104-104 46.5625-104 104-104 104 46.5625 104 104zm0 0" fill="#fdb62f"/><path d="m224.945312 306.777344c74.574219-46.289063 150.253907-33.417969 203.855469-11.929688-12.039062-48.542968-56.960937-81.613281-106.886719-78.691406-49.925781 2.921875-90.683593 41.003906-96.976562 90.621094zm0 0" fill="#ffa230"/><path d="m391.425781 103.878906c-4.0625-31.03125-29.96875-54.574218-61.246093-55.65625-31.277344-1.082031-58.75 20.613282-64.949219 51.289063 47.136719-21.304688 91.746093-11.984375 126.195312 4.367187zm0 0" fill="#ffa230"/><path d="m360 112c0 17.671875-14.328125 32-32 32s-32-14.328125-32-32 14.328125-32 32-32 32 14.328125 32 32zm0 0" fill="#fd6d2f"/><path d="m400 320c0 39.765625-32.234375 72-72 72s-72-32.234375-72-72 32.234375-72 72-72 72 32.234375 72 72zm0 0" fill="#fd6d2f"/><path d="m424 24h16v16h-16zm0 0" fill="#693721"/><path d="m424 424h16v16h-16zm0 0" fill="#693721"/><path d="m184 320-16-40h-80l-16 40h-56c-8.835938 0-16 7.164062-16 16v112c0 8.835938 7.164062 16 16 16h224c8.835938 0 16-7.164062 16-16v-112c0-8.835938-7.164062-16-16-16zm0 0" fill="#4398d1"/><path d="m249.113281 322.871094c-51.679687 91.386718-160.65625 126.832031-237.320312 140.496094 1.367187.398437 2.78125.609374 4.207031.632812h224c8.835938 0 16-7.164062 16-16v-112c0-5.242188-2.574219-10.152344-6.886719-13.128906zm0 0" fill="#3e8cc7"/><path d="m184 392c0 30.929688-25.070312 56-56 56s-56-25.070312-56-56 25.070312-56 56-56 56 25.070312 56 56zm0 0" fill="#e3584b"/><path d="m32 344h16v16h-16zm0 0" fill="#87ced9"/><path d="m200 344h32v16h-32zm0 0" fill="#87ced9"/><path d="m240 176v-40c0-57.4375-46.5625-104-104-104s-104 46.5625-104 104v40h-32v-40c0-75.109375 60.890625-136 136-136s136 60.890625 136 136v40zm0 0" fill="#4398d1"/><path d="m80 128v96c-26.507812 0-48-21.492188-48-48s21.492188-48 48-48zm0 0" fill="#87ced9"/><path d="m96 104c8.835938 0 16 7.164062 16 16v112c0 8.835938-7.164062 16-16 16s-16-7.164062-16-16v-112c0-8.835938 7.164062-16 16-16zm0 0" fill="#e3584b"/><path d="m176 104c8.835938 0 16 7.164062 16 16v112c0 8.835938-7.164062 16-16 16s-16-7.164062-16-16v-112c0-8.835938 7.164062-16 16-16zm0 0" fill="#e3584b"/><path d="m32 176c0 26.507812 21.492188 48 48 48v-38.800781c-16.832031-2.742188-32.882812-9.039063-47.089844-18.472657-.597656 3.054688-.90625 6.160157-.910156 9.273438zm0 0" fill="#71c4d1"/><path d="m192 224v-96c26.507812 0 48 21.492188 48 48s-21.492188 48-48 48zm0 0" fill="#87ced9"/><path d="m240 176c0 26.507812-21.492188 48-48 48v-38.800781c16.832031-2.742188 32.882812-9.039063 47.089844-18.472657.597656 3.054688.90625 6.160157.910156 9.273438zm0 0" fill="#71c4d1"/></svg>