<svg xmlns="http://www.w3.org/2000/svg" id="Layer_3" enable-background="new 0 0 64 64" height="512" viewBox="0 0 64 64" width="512">
  <g style="fill: rgb(232, 138, 154);">
    <g style="fill: rgb(232, 138, 154);">
      <path d="m21.428 19.753-19.428 14.247h60l-19.457-14.268.008-.012c-2.031 3.741-5.995 6.28-10.551 6.28-4.549 0-8.508-2.532-10.542-6.263z" fill="#8a8275"/>
    </g>
    <g style="fill: rgb(232, 138, 154);">
      <g style="fill: rgb(232, 138, 154);">
        <path d="m42.543 19.732c.003-.004.006-.008.008-.012z" fill="#b9b4ac"/>
      </g>
      <g style="fill: rgb(232, 138, 154);">
        <path d="m47.872 34c.731-2.391 1.128-4.903 1.128-7.5 0-.708-.039-1.408-.096-2.104l-6.36-4.664c-2.034 3.734-5.993 6.268-10.544 6.268-4.549 0-8.508-2.532-10.542-6.263l-.03.016-19.428 14.247z" fill="#b9b4ac"/>
      </g>
    </g>
    <g style="fill: rgb(232, 138, 154);">
      <path d="m6 34h52v24h-52z" fill="#d5cec2"/>
    </g>
    <g style="fill: rgb(232, 138, 154);">
      <path d="m6 34v19.271c3.43 1.119 7.135 1.729 11 1.729 14.758 0 27.175-8.9 30.872-21z" fill="#eeebe7"/>
    </g>
    <g style="fill: rgb(232, 138, 154);">
      <path d="m4 58h56v4h-56z" fill="#8a8275"/>
    </g>
    <g style="fill: rgb(232, 138, 154);">
      <path d="m44 38h10v16h-10z" fill="#92d8f1"/>
    </g>
    <g style="fill: rgb(232, 138, 154);">
      <path d="m10 38h10v16h-10z" fill="#92d8f1"/>
    </g>
    <g style="fill: rgb(232, 138, 154);">
      <path d="m10 44h10v4h-10z" fill="#8a8275"/>
    </g>
    <g style="fill: rgb(232, 138, 154);">
      <path d="m44 44h10v4h-10z" fill="#8a8275"/>
    </g>
    <g style="fill: rgb(232, 138, 154);">
      <path d="m26 42h12v16h-12z" fill="#bf8859"/>
    </g>
    <g style="fill: rgb(232, 138, 154);">
      <circle cx="32" cy="14" fill="#f8cf6a" r="12"/>
    </g>
    <g style="fill: rgb(232, 138, 154);">
      <path d="m20 14c0 3.453 1.467 6.557 3.802 8.746 9.193-1.33 16.198-8.088 16.198-16.246 0-.509-.037-1.011-.09-1.508-2.113-1.857-4.876-2.992-7.91-2.992-6.627 0-12 5.373-12 12z" fill="#fbe2a6"/>
    </g>
    <g style="fill: rgb(232, 138, 154);">
      <path d="m60 63h-56c-.553 0-1-.448-1-1v-4c0-.552.447-1 1-1h56c.553 0 1 .448 1 1v4c0 .552-.447 1-1 1zm-55-2h54v-2h-54z"/>
    </g>
    <g style="fill: rgb(232, 138, 154);">
      <path d="m57 34h2v24h-2z"/>
    </g>
    <g style="fill: rgb(232, 138, 154);">
      <path d="m5 34h2v24h-2z"/>
    </g>
    <g style="fill: rgb(232, 138, 154);">
      <path d="m39 58h-2v-15h-10v15h-2v-16c0-.552.447-1 1-1h12c.553 0 1 .448 1 1z"/>
    </g>
    <g style="fill: rgb(232, 138, 154);">
      <path d="m20 55h-10c-.553 0-1-.448-1-1v-16c0-.552.447-1 1-1h10c.553 0 1 .448 1 1v16c0 .552-.447 1-1 1zm-9-2h8v-14h-8z"/>
    </g>
    <g style="fill: rgb(232, 138, 154);">
      <path d="m62 35h-60c-.433 0-.815-.278-.95-.689s.01-.862.358-1.118l19.428-14.247 1.184 1.613-16.965 12.441h53.891l-16.995-12.461 1.184-1.613 19.457 14.268c.349.256.493.707.358 1.118-.135.41-.517.688-.95.688z"/>
    </g>
    <g style="fill: rgb(232, 138, 154);">
      <path d="m10 43h10v2h-10z"/>
    </g>
    <g style="fill: rgb(232, 138, 154);">
      <path d="m10 47h10v2h-10z"/>
    </g>
    <g style="fill: rgb(232, 138, 154);">
      <path d="m54 55h-10c-.553 0-1-.448-1-1v-16c0-.552.447-1 1-1h10c.553 0 1 .448 1 1v16c0 .552-.447 1-1 1zm-9-2h8v-14h-8z"/>
    </g>
    <g style="fill: rgb(232, 138, 154);">
      <path d="m44 43h10v2h-10z"/>
    </g>
    <g style="fill: rgb(232, 138, 154);">
      <path d="m44 47h10v2h-10z"/>
    </g>
    <g style="fill: rgb(232, 138, 154);">
      <path d="m29 49h2v4h-2z"/>
    </g>
    <g style="fill: rgb(232, 138, 154);">
      <g style="fill: rgb(232, 138, 154);">
        <path d="m32 21c-2.206 0-4-1.794-4-4h2c0 1.103.897 2 2 2s2-.897 2-2-.897-2-2-2c-2.206 0-4-1.794-4-4s1.794-4 4-4 4 1.794 4 4h-2c0-1.103-.897-2-2-2s-2 .897-2 2 .897 2 2 2c2.206 0 4 1.794 4 4s-1.794 4-4 4z"/>
      </g>
      <g style="fill: rgb(232, 138, 154);">
        <path d="m31 5h2v3h-2z"/>
      </g>
      <g style="fill: rgb(232, 138, 154);">
        <path d="m31 20h2v3h-2z"/>
      </g>
    </g>
    <g style="fill: rgb(232, 138, 154);">
      <path d="m32 27c-7.168 0-13-5.832-13-13s5.832-13 13-13 13 5.832 13 13-5.832 13-13 13zm0-24c-6.065 0-11 4.935-11 11s4.935 11 11 11 11-4.935 11-11-4.935-11-11-11z"/>
    </g>
    
    <g style="fill: rgb(232, 138, 154);">
      <path d="m12.707 16.707-1.414-1.414 3.293-3.293-3.293-3.293 1.414-1.414 4 4c.391.391.391 1.023 0 1.414z"/>
    </g>
    
    
    <g style="fill: rgb(232, 138, 154);">
      
    </g>
    <g style="fill: rgb(232, 138, 154);">
      <path d="m51.293 16.707-4-4c-.391-.391-.391-1.023 0-1.414l4-4 1.414 1.414-3.293 3.293 3.293 3.293z"/>
    </g>
    
    
  </g>

</svg>