<svg id="Capa_1" enable-background="new 0 0 512 512" height="512" viewBox="0 0 512 512" width="512" xmlns="http://www.w3.org/2000/svg"><g><g><path d="m512 256c0 141.363-114.637 256-256 256-53.217 0-102.656-16.251-143.616-44.063v-7.905c0-5.366-4.352-9.718-9.718-9.718h-13.322c-54.692-46.95-89.344-116.592-89.344-194.314 0-46.08 12.186-89.344 33.536-126.72.051-.102.102-.205.154-.256 44.083-77.107 127.129-129.024 222.31-129.024s178.227 51.917 222.31 129.024c.051.051.102.154.154.256 21.35 37.376 33.536 80.64 33.536 126.72z" fill="#ff3ea8"/><g><path d="m512 256c0 141.363-114.637 256-256 256-53.217 0-102.656-16.251-143.616-44.063v-7.905c0-5.366-4.352-9.718-9.718-9.718h-13.322c-54.692-46.95-89.344-116.592-89.344-194.314 0-46.08 12.186-89.344 33.536-126.72.051-.102.102-.205.154-.256 25.395 44.39 63.693 80.435 109.824 103.014 5.222 2.56 10.598 4.966 16.026 7.168 29.03 11.827 60.723 18.483 93.901 18.79h5.12c33.178-.307 64.87-6.963 93.901-18.79 5.427-2.202 10.803-4.608 16.026-7.168 46.08-22.579 84.429-58.624 109.824-103.014.051.051.102.154.154.256 21.348 37.376 33.534 80.64 33.534 126.72z" fill="#ff0074"/></g></g><g><g><g><path d="m283.085 407.846h-158.994c1.413-47.03 27.421-87.862 65.64-110.124 1.946-1.12 3.906-2.173 5.892-3.199 18.103-9.358 38.605-14.637 60.388-14.637 30.82 36.246 39.885 84.583 27.074 127.96z" fill="#fff"/><g><path d="m387.909 407.846c-.452-14.956-3.373-29.287-8.382-42.602-5.413-14.242-13.177-27.374-22.893-38.777-9.716-11.402-21.296-21.163-34.34-28.749h-.044c-1.952-1.154-3.904-2.218-5.945-3.239-18.057-9.361-38.555-14.596-60.295-14.596v127.963z" fill="#dff0f8"/></g><path d="m259.85 397.496-3.84 10.353h-18.248l7.874-70.912h10.373l5.13 16.804c4.364 14.336 3.913 29.706-1.289 43.755z" fill="#474f6f"/><g><path d="m274.26 407.846h-18.25v-70.905h10.372z" fill="#323b5a"/></g><path d="m261.233 335.872-5.222 5.499h-16.292l-7.434-22.549 23.726-8.407 6.042 7.67c4.187 5.315 3.829 12.892-.82 17.787z" fill="#323b5a"/><g><path d="m279.739 318.825-7.439 22.542h-16.29v-30.954z" fill="#243047"/></g></g><g><g><g><g><g><path d="m266.854 297.994-10.844 20.828c-16.968 0-30.73-13.752-30.73-30.72v-64.369h30.73l10.844 20.839c8.725 16.743 8.725 36.68 0 53.422z" fill="#f4a57b"/><path d="m286.737 223.738v64.36c0 16.97-13.757 30.727-30.727 30.727v-95.087z" fill="#f2926a"/><path d="m256.01 318.825-33.719-48.957-13.729 18.835 15.338 50.629z" fill="#dff0f8"/><path d="m256.01 318.825 33.72-48.957 13.729 18.835-15.338 50.629z" fill="#9dd6ed"/><g><path d="m166.243 178.199c-12.198 0-22.086 9.888-22.086 22.086 0 16.979 13.765 30.743 30.744 30.743h13.931v-52.349c-.001 0-21.204-.48-22.589-.48z" fill="#f4a57b"/><path d="m345.778 178.199c12.198 0 22.086 9.888 22.086 22.086 0 16.979-13.764 30.743-30.744 30.743h-13.931v-52.349s21.203-.48 22.589-.48z" fill="#f2926a"/><path d="m256.01 293.079h-.502c-28.641 0-54.927-15.995-67.963-41.482-9.974-19.436-15.585-41.441-15.585-64.778 0-5.847.359-11.571 1.034-17.234.205-1.853.471-3.717.768-5.54 7.496-46.49 44.933-69.652 82.248-69.417l1.352 2.366c34.949 60.825 34.427 135.751-1.352 196.085z" fill="#f7bda3"/><path d="m339.024 186.817c0 23.334-5.605 45.341-15.547 64.782-12.98 25.341-39.058 41.3-67.467 41.477v-198.447c4.927.03 9.824.472 14.691 1.327 11.623 2.006 22.863 6.342 32.686 13.039 16.904 11.446 29.795 29.825 33.837 55.048.915 5.782 1.534 11.682 1.711 17.7.089 1.681.089 3.362.089 5.074z" fill="#f4a57b"/><path d="m268.063 155.73-11.96 18.401c-.031.01-.051.041-.092.051-12.575 6.973-27.228 11.551-43.899 13.609-14.961 1.853-31.386.031-45.097-5.949-4.352-1.895-6.933-6.441-6.472-11.131 0-.031.031-.061.031-.082 7.004-65.055 51.241-97.833 95.437-97.239h.041l5.376 5.786c19.517 20.971 22.261 52.531 6.635 76.554z" fill="#323b5a"/><path d="m347.909 175.438c0 2.026-.04 4.053-.12 6.065-2.013 2.133-4.906 3.48-8.118 3.466-28.527-.147-47.817-11.771-59.215-30.007-6.959 7.638-15.077 14.064-24.355 19.169-.027.013-.053.04-.093.053v-100.791h.04c.053 0 .093 0 .147-.013h.053c5.372.053 10.718.533 16.023 1.466 12.877 2.226 25.315 7.025 36.193 14.437 18.716 12.677 32.98 33.02 37.459 60.947 1.013 6.399 1.693 12.931 1.893 19.596.093 1.853.093 3.72.093 5.612z" fill="#243047"/></g></g></g></g></g></g><g fill="#243047"><ellipse cx="223.071" cy="215.15" rx="12.297" ry="12.298" transform="matrix(.16 -.987 .987 .16 -25.032 400.877)"/><ellipse cx="288.949" cy="215.15" rx="12.297" ry="12.297" transform="matrix(.23 -.973 .973 .23 13.168 446.938)"/></g></g><g><path d="m134.81 333.578-6.666 58.429c-1.679 14.766-6.226 29.061-13.384 42.096l-13.978 25.477c-3.901-2.98-7.721-6.072-11.438-9.267l9.134-31.734 25.334-87.992 10.987 2.98c.011.011.011.011.011.011z" fill="#dff0f8"/><path d="m145.838 336.568-22.6 88.719-10.854 42.65c-3.953-2.683-7.813-5.468-11.602-8.356l34.028-126.003z" fill="#9dd6ed"/><g><path d="m138.195 378.108-22.128 24.85c-38.323-10.353-60.987-49.808-50.636-88.123 10.353-38.323 49.802-60.996 88.125-50.643l6.604 32.612c5.878 29.045-2.261 59.17-21.965 81.304z" fill="#323b5a"/><path d="m204.19 352.322c-10.351 38.315-49.8 60.989-88.123 50.636l37.489-138.766c38.323 10.353 60.987 49.808 50.634 88.13z" fill="#243047"/><path d="m126.292 382.262-5.976 4.965c-29.634-8.006-47.166-38.518-39.162-68.145 8.006-29.634 38.518-47.166 68.152-39.16l4.194 14.881c9.003 31.967-1.659 66.238-27.208 87.459z" fill="#dff0f8"/><path d="m188.467 348.074c-8.004 29.627-38.516 47.159-68.15 39.153l28.99-107.305c29.633 8.006 47.166 38.518 39.16 68.152z" fill="#9dd6ed"/></g><path d="m103.025 457.288-2.243 2.294c-3.901-2.98-7.721-6.072-11.438-9.267l9.134-31.734 12.462 3.379 1.085 6c1.936 10.65-1.412 21.586-9 29.328z" fill="#323b5a"/><path d="m123.238 425.288-10.854 42.65c-3.953-2.683-7.813-5.468-11.602-8.356l10.158-37.622z" fill="#243047"/></g></g><path d="m259.564 262.103-3.553 2.509h-.011c-10.025 0-19.436-5.652-25.815-15.513-1.587-2.447-.891-5.724 1.556-7.311 2.458-1.587 5.724-.881 7.311 1.567 4.403 6.799 10.578 10.691 16.947 10.691h.01l3.553 2.509c1.916 1.35 1.916 4.196.002 5.548z" fill="#f4a57b"/><path d="m281.815 249.098c-6.379 9.861-15.78 15.513-25.805 15.513v-10.567c6.369 0 12.534-3.891 16.937-10.691 1.587-2.447 4.854-3.154 7.311-1.567 2.448 1.588 3.144 4.865 1.557 7.312z" fill="#f2926a"/><path d="m255.932 240.939c-3.188-.011-5.763-2.604-5.753-5.792l.084-24.781c.011-3.188 2.604-5.763 5.792-5.753 3.188.011 5.764 2.604 5.753 5.792l-.084 24.781c-.01 3.188-2.603 5.763-5.792 5.753z" fill="#e47971"/></g></svg>