<svg height="512" viewBox="0 0 64 64" width="512" xmlns="http://www.w3.org/2000/svg"><g id="Glyph"><path d="m10 48a6 6 0 1 0 6 6 6.006 6.006 0 0 0 -6-6zm0 9a3 3 0 1 1 3-3 3 3 0 0 1 -3 3z"/><path d="m13 4.543v5.457a1 1 0 0 1 -1 1h-4a1 1 0 0 1 -1-1v-5.457a6.493 6.493 0 0 0 -3 5.457 5.937 5.937 0 0 0 6 6 5.937 5.937 0 0 0 6-6 6.493 6.493 0 0 0 -3-5.457z"/><path d="m12 46.263v-28.515a8.063 8.063 0 0 1 -4 0v28.515a7.736 7.736 0 0 1 4 0z"/><path d="m59 36h-6a1 1 0 0 0 0 2h6a1 1 0 0 0 0-2z"/><path d="m55 16h2v18h-2z"/><path d="m58.931 11.801-1.733-7.801h-2.396l-1.733 7.801 1.466 2.199h2.93z"/><path d="m59 60a1 1 0 0 0 1-1v-18a1 1 0 0 0 -1-1h-6a1 1 0 0 0 -1 1v18a1 1 0 0 0 1 1h1v-6h2v6z"/><path d="m29 6h10v2h-10z"/><circle cx="34" cy="53" r="1"/><path d="m46 56v-8h-24v8a2 2 0 0 0 2 2h20a2 2 0 0 0 2-2zm-12 0a3 3 0 1 1 3-3 3 3 0 0 1 -3 3z"/><path d="m46 8a2 2 0 0 0 -2-2h-3v3a1 1 0 0 1 -1 1h-12a1 1 0 0 1 -1-1v-3h-3a2 2 0 0 0 -2 2v38h24zm-15.293 25.707-1.414-1.414 8-8 1.414 1.414zm0-5-1.414-1.414 8-8 1.414 1.414zm9.293-14.707h-2v-2h2zm4 0h-2v-2h2z"/></g></svg>